<svg xmlns="http://www.w3.org/2000/svg" xmlns:xlink="http://www.w3.org/1999/xlink" width="500" zoomAndPan="magnify" viewBox="0 0 375 374.999991" height="500" preserveAspectRatio="xMidYMid meet" version="1.0"><path fill="#38b6ff" d="M 187.480469 4.460938 L 225.8125 25.429688 L 187.480469 46.398438 L 149.148438 25.429688 Z M 146.9375 28.875 L 159.363281 35.671875 L 185.4375 49.933594 L 185.4375 91.875 L 153.617188 74.464844 L 149.464844 76.847656 L 186.5 97.109375 C 186.519531 97.121094 186.542969 97.125 186.5625 97.132812 C 186.640625 97.167969 186.71875 97.195312 186.796875 97.226562 C 186.855469 97.246094 186.90625 97.277344 186.960938 97.289062 C 187.132812 97.335938 187.304688 97.359375 187.480469 97.359375 C 187.65625 97.359375 187.828125 97.335938 188 97.289062 C 188.054688 97.277344 188.105469 97.246094 188.160156 97.226562 C 188.242188 97.195312 188.320312 97.167969 188.398438 97.132812 C 188.417969 97.125 188.441406 97.121094 188.460938 97.109375 L 225.496094 76.847656 L 221.34375 74.464844 L 189.523438 91.875 L 189.523438 49.933594 L 213.332031 36.910156 L 228.023438 28.875 L 228.023438 62.527344 L 232.105469 64.871094 L 232.105469 25.429688 C 232.105469 25.253906 232.082031 25.082031 232.039062 24.917969 C 232.039062 24.910156 232.039062 24.90625 232.035156 24.898438 C 231.992188 24.738281 231.929688 24.585938 231.847656 24.445312 C 231.84375 24.433594 231.839844 24.421875 231.832031 24.410156 C 231.753906 24.273438 231.65625 24.144531 231.542969 24.027344 C 231.53125 24.015625 231.523438 24.003906 231.511719 23.992188 C 231.402344 23.882812 231.273438 23.78125 231.136719 23.695312 C 231.125 23.691406 231.117188 23.679688 231.105469 23.675781 C 231.101562 23.671875 231.09375 23.667969 231.085938 23.667969 C 231.074219 23.65625 231.058594 23.648438 231.046875 23.640625 L 188.460938 0.34375 C 187.851562 0.0078125 187.109375 0.0078125 186.5 0.34375 L 143.914062 23.640625 C 143.898438 23.648438 143.886719 23.65625 143.875 23.667969 C 143.867188 23.667969 143.859375 23.671875 143.855469 23.675781 C 143.84375 23.679688 143.835938 23.691406 143.824219 23.695312 C 143.6875 23.78125 143.558594 23.882812 143.449219 23.992188 C 143.4375 24.003906 143.429688 24.015625 143.417969 24.027344 C 143.308594 24.144531 143.207031 24.273438 143.128906 24.410156 C 143.121094 24.421875 143.117188 24.433594 143.109375 24.441406 C 143.03125 24.585938 142.96875 24.738281 142.925781 24.898438 C 142.921875 24.90625 142.921875 24.910156 142.921875 24.917969 C 142.878906 25.082031 142.851562 25.253906 142.851562 25.429688 L 142.851562 64.871094 L 146.9375 62.527344 L 146.9375 28.875 " fill-opacity="1" fill-rule="nonzero"/><path fill="#38b6ff" d="M 59.722656 73.40625 L 98.054688 94.375 L 63.292969 113.394531 L 59.722656 115.34375 L 56.324219 113.484375 L 21.390625 94.375 Z M 19.179688 97.820312 L 57.683594 118.882812 L 57.683594 160.820312 L 19.179688 139.757812 Z M 16.160156 142.757812 L 58.746094 166.054688 C 58.761719 166.066406 58.785156 166.070312 58.804688 166.078125 C 58.882812 166.113281 58.964844 166.144531 59.042969 166.171875 C 59.097656 166.191406 59.148438 166.222656 59.207031 166.238281 C 59.375 166.28125 59.550781 166.304688 59.722656 166.304688 C 59.898438 166.304688 60.074219 166.28125 60.242188 166.238281 C 60.296875 166.222656 60.351562 166.191406 60.402344 166.171875 C 60.484375 166.144531 60.5625 166.113281 60.640625 166.078125 C 60.660156 166.070312 60.683594 166.066406 60.703125 166.054688 L 98.101562 145.59375 L 93.953125 143.214844 L 61.765625 160.820312 L 61.765625 118.882812 L 93.140625 101.71875 L 100.269531 97.820312 L 100.269531 131.066406 L 104.351562 133.410156 L 104.351562 94.375 C 104.351562 94.203125 104.324219 94.027344 104.285156 93.863281 C 104.28125 93.859375 104.28125 93.851562 104.28125 93.84375 C 104.238281 93.683594 104.171875 93.53125 104.09375 93.390625 C 104.085938 93.378906 104.082031 93.367188 104.078125 93.355469 C 103.996094 93.21875 103.898438 93.089844 103.785156 92.972656 C 103.777344 92.960938 103.765625 92.949219 103.753906 92.9375 C 103.644531 92.828125 103.515625 92.726562 103.378906 92.644531 C 103.367188 92.636719 103.359375 92.625 103.351562 92.621094 C 103.34375 92.617188 103.335938 92.613281 103.332031 92.613281 C 103.316406 92.605469 103.304688 92.59375 103.289062 92.585938 L 60.703125 69.289062 C 60.09375 68.953125 59.355469 68.953125 58.746094 69.289062 L 16.160156 92.585938 C 16.144531 92.59375 16.132812 92.605469 16.117188 92.613281 C 16.109375 92.613281 16.105469 92.617188 16.097656 92.621094 C 16.085938 92.625 16.078125 92.636719 16.070312 92.644531 C 15.929688 92.726562 15.804688 92.828125 15.691406 92.9375 C 15.679688 92.949219 15.671875 92.960938 15.660156 92.972656 C 15.550781 93.089844 15.453125 93.21875 15.371094 93.355469 C 15.367188 93.367188 15.359375 93.378906 15.355469 93.390625 C 15.277344 93.53125 15.210938 93.683594 15.167969 93.84375 C 15.167969 93.851562 15.167969 93.859375 15.164062 93.863281 C 15.121094 94.027344 15.097656 94.203125 15.097656 94.375 L 15.097656 140.96875 C 15.097656 141.714844 15.503906 142.402344 16.160156 142.757812 " fill-opacity="1" fill-rule="nonzero"/><path fill="#38b6ff" d="M 19.179688 237.59375 L 32.972656 245.140625 L 57.683594 258.65625 L 57.683594 300.59375 L 19.179688 279.53125 Z M 61.765625 300.59375 L 61.765625 258.65625 L 85.703125 245.5625 L 100.269531 237.59375 L 100.269531 269.503906 L 104.351562 271.847656 L 104.351562 234.152344 C 104.351562 233.976562 104.324219 233.804688 104.285156 233.640625 C 104.28125 233.632812 104.28125 233.625 104.28125 233.617188 C 104.238281 233.460938 104.171875 233.308594 104.09375 233.164062 C 104.085938 233.152344 104.082031 233.140625 104.078125 233.132812 C 103.996094 232.992188 103.898438 232.863281 103.785156 232.746094 C 103.777344 232.738281 103.765625 232.722656 103.753906 232.714844 C 103.644531 232.601562 103.515625 232.503906 103.378906 232.417969 C 103.367188 232.410156 103.359375 232.402344 103.351562 232.394531 C 103.34375 232.390625 103.335938 232.390625 103.332031 232.386719 C 103.316406 232.378906 103.304688 232.367188 103.289062 232.359375 L 66.527344 212.25 L 66.5 216.890625 L 98.054688 234.152344 L 59.722656 255.121094 L 21.390625 234.152344 L 52.824219 216.957031 L 52.847656 212.289062 L 16.160156 232.359375 C 16.144531 232.367188 16.132812 232.378906 16.117188 232.386719 C 16.109375 232.390625 16.105469 232.390625 16.097656 232.394531 C 16.085938 232.402344 16.078125 232.410156 16.070312 232.417969 C 15.929688 232.503906 15.804688 232.601562 15.691406 232.714844 C 15.679688 232.722656 15.671875 232.738281 15.660156 232.746094 C 15.550781 232.863281 15.453125 232.992188 15.371094 233.132812 C 15.367188 233.140625 15.359375 233.152344 15.355469 233.164062 C 15.277344 233.308594 15.210938 233.460938 15.167969 233.617188 C 15.167969 233.625 15.167969 233.632812 15.164062 233.640625 C 15.121094 233.804688 15.097656 233.976562 15.097656 234.152344 L 15.097656 280.742188 C 15.097656 281.488281 15.503906 282.175781 16.160156 282.535156 L 58.746094 305.828125 C 58.761719 305.839844 58.785156 305.84375 58.804688 305.855469 C 58.882812 305.886719 58.960938 305.917969 59.042969 305.945312 C 59.097656 305.964844 59.148438 305.996094 59.207031 306.011719 C 59.375 306.054688 59.550781 306.082031 59.722656 306.082031 C 59.898438 306.082031 60.074219 306.054688 60.242188 306.011719 C 60.296875 305.996094 60.351562 305.964844 60.40625 305.945312 C 60.484375 305.917969 60.5625 305.886719 60.640625 305.855469 C 60.660156 305.84375 60.683594 305.839844 60.703125 305.828125 L 99.296875 284.71875 L 95.144531 282.335938 L 61.765625 300.59375 " fill-opacity="1" fill-rule="nonzero"/><path fill="#38b6ff" d="M 228.023438 208.703125 L 189.523438 229.765625 L 189.523438 187.828125 L 214.589844 174.113281 L 228.023438 166.765625 Z M 146.9375 166.765625 L 159.054688 173.394531 L 185.4375 187.828125 L 185.4375 229.765625 L 146.9375 208.703125 Z M 187.480469 142.351562 L 225.8125 163.324219 L 187.480469 184.289062 L 149.148438 163.324219 Z M 232.035156 162.789062 C 231.992188 162.628906 231.929688 162.476562 231.847656 162.335938 C 231.84375 162.324219 231.839844 162.3125 231.832031 162.304688 C 231.753906 162.164062 231.65625 162.035156 231.542969 161.917969 C 231.53125 161.90625 231.523438 161.894531 231.511719 161.882812 C 231.402344 161.769531 231.273438 161.671875 231.136719 161.589844 C 231.125 161.582031 231.117188 161.574219 231.105469 161.566406 C 231.101562 161.5625 231.09375 161.5625 231.085938 161.558594 C 231.074219 161.550781 231.058594 161.539062 231.046875 161.53125 L 188.460938 138.234375 C 187.851562 137.902344 187.109375 137.902344 186.5 138.234375 L 143.914062 161.53125 C 143.898438 161.539062 143.886719 161.550781 143.875 161.558594 C 143.867188 161.5625 143.859375 161.5625 143.855469 161.566406 C 143.84375 161.574219 143.835938 161.582031 143.824219 161.589844 C 143.6875 161.671875 143.558594 161.769531 143.449219 161.882812 C 143.4375 161.894531 143.429688 161.90625 143.417969 161.917969 C 143.304688 162.035156 143.207031 162.164062 143.128906 162.304688 C 143.121094 162.3125 143.117188 162.324219 143.109375 162.335938 C 143.03125 162.476562 142.96875 162.628906 142.925781 162.789062 C 142.921875 162.796875 142.921875 162.804688 142.921875 162.8125 C 142.878906 162.976562 142.851562 163.148438 142.851562 163.324219 L 142.851562 209.914062 C 142.851562 210.660156 143.261719 211.347656 143.914062 211.703125 L 186.5 235 C 186.519531 235.011719 186.542969 235.015625 186.5625 235.023438 C 186.640625 235.058594 186.71875 235.089844 186.796875 235.117188 C 186.855469 235.136719 186.90625 235.167969 186.960938 235.183594 C 187.132812 235.226562 187.304688 235.25 187.480469 235.25 C 187.65625 235.25 187.828125 235.226562 188 235.183594 C 188.054688 235.167969 188.105469 235.136719 188.160156 235.117188 C 188.242188 235.089844 188.320312 235.058594 188.398438 235.023438 C 188.417969 235.015625 188.441406 235.011719 188.460938 235 L 231.046875 211.703125 C 231.699219 211.347656 232.105469 210.660156 232.105469 209.914062 L 232.105469 163.324219 C 232.105469 163.148438 232.082031 162.976562 232.039062 162.8125 C 232.039062 162.804688 232.039062 162.796875 232.035156 162.789062 " fill-opacity="1" fill-rule="nonzero"/><path fill="#38b6ff" d="M 228.023438 348.480469 L 189.523438 369.539062 L 189.523438 327.601562 L 213.699219 314.378906 L 228.023438 306.542969 Z M 146.9375 306.542969 L 158.863281 313.066406 L 185.4375 327.601562 L 185.4375 369.539062 L 146.9375 348.480469 Z M 187.480469 282.128906 L 225.8125 303.097656 L 187.480469 324.066406 L 182.621094 321.410156 L 149.148438 303.097656 Z M 232.035156 302.566406 C 231.992188 302.40625 231.929688 302.253906 231.847656 302.109375 C 231.84375 302.097656 231.839844 302.089844 231.832031 302.078125 C 231.753906 301.9375 231.65625 301.8125 231.542969 301.695312 C 231.53125 301.683594 231.523438 301.671875 231.511719 301.660156 C 231.398438 301.546875 231.273438 301.449219 231.132812 301.363281 C 231.125 301.355469 231.117188 301.347656 231.105469 301.339844 C 231.101562 301.335938 231.09375 301.335938 231.089844 301.332031 C 231.074219 301.324219 231.058594 301.316406 231.046875 301.304688 L 188.460938 278.007812 C 187.851562 277.675781 187.109375 277.675781 186.5 278.007812 L 143.914062 301.304688 C 143.898438 301.316406 143.886719 301.324219 143.871094 301.332031 C 143.867188 301.335938 143.859375 301.335938 143.855469 301.339844 C 143.84375 301.347656 143.835938 301.355469 143.828125 301.363281 C 143.6875 301.449219 143.558594 301.546875 143.449219 301.660156 C 143.4375 301.671875 143.429688 301.683594 143.417969 301.695312 C 143.308594 301.8125 143.207031 301.9375 143.128906 302.078125 C 143.121094 302.089844 143.117188 302.097656 143.109375 302.109375 C 143.03125 302.253906 142.96875 302.40625 142.925781 302.566406 C 142.921875 302.570312 142.921875 302.578125 142.921875 302.585938 C 142.878906 302.75 142.851562 302.921875 142.851562 303.097656 L 142.851562 349.6875 C 142.851562 350.433594 143.261719 351.121094 143.914062 351.480469 L 186.5 374.777344 C 186.519531 374.785156 186.542969 374.789062 186.5625 374.800781 C 186.640625 374.835938 186.71875 374.867188 186.796875 374.894531 C 186.855469 374.910156 186.90625 374.941406 186.960938 374.957031 C 187.132812 375 187.304688 375.027344 187.480469 375.027344 C 187.65625 375.027344 187.828125 375 188 374.957031 C 188.054688 374.941406 188.105469 374.910156 188.160156 374.894531 C 188.242188 374.867188 188.320312 374.835938 188.398438 374.800781 C 188.417969 374.789062 188.441406 374.785156 188.460938 374.777344 L 231.046875 351.480469 C 231.699219 351.121094 232.105469 350.433594 232.105469 349.6875 L 232.105469 303.097656 C 232.105469 302.921875 232.082031 302.75 232.039062 302.585938 C 232.039062 302.578125 232.039062 302.570312 232.035156 302.566406 " fill-opacity="1" fill-rule="nonzero"/><path fill="#38b6ff" d="M 355.78125 139.757812 L 317.277344 160.820312 L 317.277344 118.882812 L 341.453125 105.65625 L 355.78125 97.820312 Z M 315.238281 73.40625 L 353.570312 94.375 L 327.40625 108.691406 L 315.238281 115.34375 L 311.351562 113.21875 L 276.90625 94.375 Z M 359.796875 93.863281 C 359.792969 93.859375 359.792969 93.851562 359.792969 93.84375 C 359.75 93.683594 359.683594 93.53125 359.605469 93.390625 C 359.601562 93.378906 359.59375 93.367188 359.589844 93.355469 C 359.507812 93.21875 359.410156 93.089844 359.300781 92.972656 C 359.289062 92.960938 359.277344 92.949219 359.269531 92.9375 C 359.15625 92.828125 359.03125 92.726562 358.890625 92.644531 C 358.882812 92.636719 358.875 92.625 358.863281 92.621094 C 358.855469 92.617188 358.851562 92.613281 358.84375 92.613281 C 358.828125 92.605469 358.816406 92.59375 358.800781 92.585938 L 316.214844 69.289062 C 315.605469 68.953125 314.867188 68.953125 314.257812 69.289062 L 271.671875 92.585938 C 271.65625 92.59375 271.644531 92.605469 271.628906 92.613281 C 271.621094 92.613281 271.617188 92.617188 271.609375 92.621094 C 271.601562 92.625 271.59375 92.636719 271.582031 92.644531 C 271.445312 92.726562 271.316406 92.828125 271.203125 92.9375 C 271.195312 92.949219 271.183594 92.960938 271.175781 92.972656 C 271.0625 93.089844 270.964844 93.21875 270.882812 93.355469 C 270.878906 93.367188 270.875 93.378906 270.867188 93.390625 C 270.789062 93.53125 270.722656 93.683594 270.679688 93.84375 C 270.679688 93.851562 270.675781 93.859375 270.675781 93.863281 C 270.632812 94.027344 270.609375 94.203125 270.609375 94.375 L 270.609375 135.804688 L 274.691406 133.460938 L 274.691406 97.820312 L 286.621094 104.347656 L 313.195312 118.882812 L 313.195312 160.820312 L 283.144531 144.382812 L 278.992188 146.765625 L 314.257812 166.054688 C 314.277344 166.066406 314.300781 166.070312 314.316406 166.078125 C 314.394531 166.113281 314.476562 166.144531 314.554688 166.171875 C 314.609375 166.191406 314.664062 166.222656 314.71875 166.238281 C 314.886719 166.28125 315.0625 166.304688 315.238281 166.304688 C 315.410156 166.304688 315.585938 166.28125 315.753906 166.238281 C 315.808594 166.222656 315.863281 166.191406 315.917969 166.171875 C 315.996094 166.144531 316.078125 166.113281 316.152344 166.078125 C 316.175781 166.070312 316.195312 166.066406 316.214844 166.054688 L 358.800781 142.757812 C 359.457031 142.402344 359.863281 141.714844 359.863281 140.96875 L 359.863281 94.375 C 359.863281 94.203125 359.839844 94.027344 359.796875 93.863281 " fill-opacity="1" fill-rule="nonzero"/><path fill="#38b6ff" d="M 355.78125 279.53125 L 317.277344 300.59375 L 317.277344 258.65625 L 336.585938 248.09375 L 355.78125 237.59375 Z M 359.792969 233.617188 C 359.75 233.460938 359.683594 233.308594 359.605469 233.164062 C 359.601562 233.152344 359.59375 233.140625 359.589844 233.132812 C 359.507812 232.992188 359.410156 232.863281 359.300781 232.746094 C 359.289062 232.738281 359.277344 232.722656 359.269531 232.714844 C 359.15625 232.601562 359.03125 232.503906 358.890625 232.417969 C 358.882812 232.410156 358.875 232.402344 358.863281 232.394531 C 358.855469 232.390625 358.851562 232.390625 358.84375 232.386719 C 358.828125 232.378906 358.816406 232.367188 358.800781 232.359375 L 322.039062 212.25 L 322.015625 216.890625 L 353.570312 234.152344 L 315.238281 255.121094 L 276.90625 234.152344 L 308.335938 216.957031 L 308.359375 212.289062 L 271.671875 232.359375 C 271.65625 232.367188 271.644531 232.378906 271.628906 232.386719 C 271.625 232.390625 271.617188 232.390625 271.609375 232.394531 C 271.601562 232.402344 271.59375 232.410156 271.582031 232.417969 C 271.445312 232.503906 271.316406 232.601562 271.203125 232.714844 C 271.195312 232.722656 271.183594 232.738281 271.175781 232.746094 C 271.0625 232.863281 270.964844 232.992188 270.882812 233.132812 C 270.878906 233.140625 270.875 233.152344 270.867188 233.164062 C 270.789062 233.308594 270.722656 233.460938 270.679688 233.617188 C 270.679688 233.625 270.675781 233.632812 270.675781 233.640625 C 270.632812 233.804688 270.609375 233.976562 270.609375 234.152344 L 270.609375 271.847656 L 274.691406 269.503906 L 274.691406 237.59375 L 293.0625 247.640625 L 313.195312 258.65625 L 313.195312 300.59375 L 279.8125 282.332031 L 275.664062 284.71875 L 314.257812 305.828125 C 314.277344 305.839844 314.300781 305.84375 314.316406 305.855469 C 314.394531 305.886719 314.476562 305.917969 314.554688 305.945312 C 314.609375 305.964844 314.660156 305.996094 314.71875 306.011719 C 314.886719 306.054688 315.0625 306.082031 315.238281 306.082031 C 315.410156 306.082031 315.585938 306.054688 315.753906 306.011719 C 315.8125 305.996094 315.863281 305.964844 315.917969 305.945312 C 315.996094 305.917969 316.078125 305.886719 316.152344 305.855469 C 316.175781 305.84375 316.195312 305.839844 316.214844 305.828125 L 358.800781 282.535156 C 359.457031 282.175781 359.863281 281.488281 359.863281 280.742188 L 359.863281 234.152344 C 359.863281 233.976562 359.839844 233.804688 359.796875 233.640625 C 359.792969 233.632812 359.792969 233.625 359.792969 233.617188 " fill-opacity="1" fill-rule="nonzero"/><path fill="#38b6ff" d="M 314.992188 237.355469 C 315.019531 237.355469 315.046875 237.355469 315.074219 237.355469 C 316.371094 237.3125 317.429688 236.246094 317.433594 234.976562 L 317.539062 214.441406 L 317.566406 209.800781 L 317.746094 175.277344 C 317.75 174.035156 316.742188 173.050781 315.480469 173.050781 C 315.453125 173.050781 315.425781 173.054688 315.398438 173.054688 C 314.101562 173.097656 313.042969 174.160156 313.042969 175.433594 L 312.859375 209.828125 L 312.835938 214.496094 L 312.726562 235.128906 C 312.726562 235.53125 312.828125 235.902344 313.011719 236.222656 C 313.398438 236.902344 314.136719 237.355469 314.992188 237.355469 " fill-opacity="1" fill-rule="nonzero"/><path fill="#38b6ff" d="M 59.886719 173.054688 C 58.585938 173.097656 57.53125 174.160156 57.527344 175.433594 L 57.347656 209.828125 L 57.324219 214.496094 L 57.214844 235.128906 C 57.214844 235.53125 57.316406 235.902344 57.5 236.222656 C 57.882812 236.902344 58.625 237.355469 59.480469 237.355469 C 59.507812 237.355469 59.535156 237.355469 59.5625 237.355469 C 60.859375 237.3125 61.917969 236.246094 61.917969 234.976562 L 62.027344 214.441406 L 62.050781 209.800781 L 62.234375 175.277344 C 62.238281 174.035156 61.230469 173.050781 59.964844 173.050781 C 59.941406 173.050781 59.914062 173.054688 59.886719 173.054688 " fill-opacity="1" fill-rule="nonzero"/><path fill="#38b6ff" d="M 110.804688 93.53125 C 111.175781 93.53125 111.550781 93.4375 111.894531 93.242188 L 144.851562 74.324219 L 149.003906 71.941406 L 163.671875 63.523438 C 164.773438 62.890625 165.179688 61.449219 164.574219 60.296875 C 164.164062 59.507812 163.378906 59.0625 162.574219 59.0625 C 162.207031 59.0625 161.832031 59.15625 161.484375 59.351562 L 146.9375 67.703125 L 142.851562 70.046875 L 109.707031 89.070312 C 108.605469 89.703125 108.199219 91.144531 108.804688 92.296875 C 109.21875 93.085938 110 93.53125 110.804688 93.53125 " fill-opacity="1" fill-rule="nonzero"/><path fill="#38b6ff" d="M 228.023438 67.703125 L 213.476562 59.351562 C 213.128906 59.15625 212.753906 59.0625 212.382812 59.0625 C 211.578125 59.0625 210.796875 59.507812 210.382812 60.296875 C 209.777344 61.449219 210.1875 62.890625 211.289062 63.523438 L 225.957031 71.941406 L 230.109375 74.324219 L 263.0625 93.242188 C 263.410156 93.4375 263.785156 93.53125 264.15625 93.53125 C 264.960938 93.53125 265.742188 93.085938 266.15625 92.296875 C 266.761719 91.144531 266.355469 89.703125 265.25 89.070312 L 232.105469 70.046875 L 228.023438 67.703125 " fill-opacity="1" fill-rule="nonzero"/><path fill="#38b6ff" d="M 278.527344 141.855469 L 297.589844 130.914062 C 298.695312 130.285156 299.101562 128.84375 298.496094 127.691406 C 298.082031 126.902344 297.300781 126.457031 296.496094 126.457031 C 296.125 126.457031 295.75 126.550781 295.40625 126.746094 L 274.691406 138.636719 L 270.609375 140.976562 L 243.628906 156.464844 C 242.523438 157.09375 242.121094 158.539062 242.722656 159.691406 C 243.136719 160.480469 243.917969 160.925781 244.722656 160.925781 C 245.09375 160.925781 245.46875 160.832031 245.816406 160.636719 L 274.378906 144.238281 L 278.527344 141.855469 " fill-opacity="1" fill-rule="nonzero"/><path fill="#38b6ff" d="M 135.503906 294.902344 L 104.351562 277.019531 L 100.269531 274.675781 L 83.730469 265.183594 C 83.382812 264.984375 83.007812 264.890625 82.636719 264.890625 C 81.832031 264.890625 81.050781 265.339844 80.636719 266.128906 C 80.03125 267.277344 80.4375 268.722656 81.542969 269.351562 L 99.761719 279.808594 L 103.800781 282.128906 L 133.316406 299.070312 C 133.664062 299.269531 134.039062 299.363281 134.410156 299.363281 C 135.214844 299.363281 135.996094 298.917969 136.410156 298.128906 C 137.011719 296.976562 136.609375 295.53125 135.503906 294.902344 " fill-opacity="1" fill-rule="nonzero"/><path fill="#38b6ff" d="M 294.324219 266.128906 C 293.910156 265.339844 293.128906 264.890625 292.324219 264.890625 C 291.953125 264.890625 291.578125 264.984375 291.230469 265.183594 L 274.691406 274.675781 L 270.609375 277.019531 L 239.457031 294.902344 C 238.351562 295.53125 237.945312 296.976562 238.550781 298.128906 C 238.964844 298.917969 239.746094 299.363281 240.550781 299.363281 C 240.921875 299.363281 241.296875 299.269531 241.644531 299.070312 L 271.160156 282.128906 L 275.199219 279.808594 L 293.417969 269.351562 C 294.519531 268.722656 294.929688 267.277344 294.324219 266.128906 " fill-opacity="1" fill-rule="nonzero"/><path fill="#38b6ff" d="M 135.503906 156.464844 L 104.351562 138.582031 L 100.269531 136.238281 L 83.730469 126.746094 C 83.382812 126.550781 83.007812 126.457031 82.636719 126.457031 C 81.832031 126.457031 81.050781 126.902344 80.636719 127.691406 C 80.03125 128.84375 80.4375 130.285156 81.542969 130.914062 L 98.566406 140.6875 L 102.71875 143.070312 L 133.316406 160.636719 C 133.664062 160.832031 134.039062 160.925781 134.410156 160.925781 C 135.214844 160.925781 135.996094 160.480469 136.410156 159.691406 C 137.011719 158.539062 136.609375 157.09375 135.503906 156.464844 " fill-opacity="1" fill-rule="nonzero"/><path fill="#38b6ff" d="M 241.367188 212.582031 C 241.0625 212.410156 240.730469 212.328125 240.40625 212.328125 C 239.695312 212.328125 239.007812 212.71875 238.644531 213.414062 C 238.113281 214.425781 238.46875 215.695312 239.441406 216.25 L 263.1875 230.207031 C 263.492188 230.378906 263.820312 230.464844 264.148438 230.464844 C 264.855469 230.464844 265.542969 230.070312 265.90625 229.375 C 266.4375 228.363281 266.082031 227.09375 265.109375 226.539062 L 241.367188 212.582031 " fill-opacity="1" fill-rule="nonzero"/><path fill="#38b6ff" d="M 187.171875 102.113281 C 186.03125 102.167969 185.113281 103.117188 185.128906 104.238281 L 185.089844 130.496094 C 185.09375 130.847656 185.1875 131.175781 185.355469 131.457031 C 185.699219 132.039062 186.339844 132.425781 187.082031 132.425781 C 187.113281 132.425781 187.148438 132.425781 187.183594 132.421875 C 188.324219 132.367188 189.242188 131.417969 189.226562 130.300781 L 189.265625 104.039062 C 189.253906 102.957031 188.371094 102.109375 187.273438 102.109375 C 187.238281 102.109375 187.207031 102.109375 187.171875 102.113281 " fill-opacity="1" fill-rule="nonzero"/><path fill="#38b6ff" d="M 187.171875 272.027344 C 187.207031 272.03125 187.238281 272.03125 187.273438 272.03125 C 188.371094 272.03125 189.253906 271.183594 189.265625 270.101562 L 189.226562 243.84375 C 189.242188 242.722656 188.324219 241.769531 187.183594 241.71875 C 187.148438 241.714844 187.113281 241.714844 187.082031 241.714844 C 186.339844 241.714844 185.699219 242.101562 185.355469 242.683594 C 185.1875 242.964844 185.09375 243.292969 185.089844 243.644531 L 185.128906 269.902344 C 185.113281 271.023438 186.03125 271.972656 187.171875 272.027344 " fill-opacity="1" fill-rule="nonzero"/><path fill="#38b6ff" d="M 110.8125 230.464844 C 111.140625 230.464844 111.46875 230.378906 111.773438 230.207031 L 135.519531 216.25 C 136.492188 215.695312 136.847656 214.425781 136.316406 213.414062 C 135.949219 212.71875 135.261719 212.328125 134.554688 212.328125 C 134.230469 212.328125 133.898438 212.410156 133.59375 212.582031 L 109.851562 226.539062 C 108.878906 227.09375 108.519531 228.363281 109.054688 229.375 C 109.417969 230.070312 110.105469 230.464844 110.8125 230.464844 " fill-opacity="1" fill-rule="nonzero"/></svg>